<svg width="76" height="33" viewBox="0 0 76 33" fill="none" xmlns="http://www.w3.org/2000/svg">
<g clip-path="url(#clip0_10632_38579)">
<path fill-rule="evenodd" clip-rule="evenodd" d="M38.6148 0.569242C37.4587 0.811176 36.6278 1.57799 36.3209 2.68604C36.2096 3.08833 36.2004 3.74836 36.3003 4.16408C36.4459 4.76906 36.8537 5.40425 37.3284 5.765C37.8687 6.1757 38.4838 6.38522 39.1449 6.3839C39.6224 6.38294 39.9857 6.29752 40.4066 6.08736C41.0062 5.78785 41.3973 5.404 41.7024 4.81572C42.2282 3.8016 42.1014 2.48463 41.3933 1.60448C41.0134 1.13225 40.3994 0.74012 39.8292 0.60553C39.5903 0.549157 38.8206 0.526152 38.6148 0.569242ZM18.7462 3.40603C17.7827 3.56803 16.7515 3.73911 16.4546 3.78624L15.915 3.87194L15.5829 5.93845C15.4001 7.07502 15.2376 8.01975 15.2218 8.03784C15.2059 8.05592 14.8387 8.12793 14.4056 8.19787C13.8467 8.28813 13.609 8.34242 13.5856 8.38503C13.5675 8.41804 13.4253 9.24622 13.2697 10.2254C13.114 11.2047 12.977 12.0464 12.9655 12.0959L12.9443 12.1859H14.0834H15.2224L15.2228 16.3968C15.223 18.8615 15.2396 20.7986 15.2629 21.0679C15.527 24.1266 17.0844 25.5679 20.2716 25.7036C21.4573 25.7541 22.3755 25.6762 23.375 25.4403L23.8229 25.3346V23.1368V20.9392L23.7134 20.9676C23.2816 21.0797 22.8154 21.1521 22.3856 21.174C21.9439 21.1964 21.8513 21.1894 21.6083 21.1153C21.1332 20.9702 20.8698 20.6627 20.7374 20.0984C20.6877 19.8863 20.6784 19.2554 20.678 16.0168L20.6773 12.1859H22.0877H23.498L23.5212 12.0759C23.5339 12.0154 23.6789 11.1286 23.8432 10.1054C24.0077 9.08219 24.1513 8.20451 24.1625 8.15498L24.1827 8.06496H22.43H20.6773V5.5844V3.10385L20.5877 3.10769C20.5385 3.10985 19.7098 3.24408 18.7462 3.40603ZM5.16872 7.80506C3.64334 8.02199 2.50904 8.53026 1.61803 9.3961C1.20778 9.79471 0.81838 10.3375 0.614281 10.7951C-0.00423295 12.1816 -0.0155414 14.0919 0.587208 15.3715C1.24684 16.772 2.44139 17.6401 5.00946 18.5855C5.86775 18.9014 6.73093 19.3224 7.03624 19.5739C7.1762 19.6892 7.32114 19.8566 7.3946 19.9877C7.5011 20.1777 7.51755 20.2459 7.51524 20.4878C7.50891 21.1596 7.02227 21.5318 6.04628 21.6112C4.85031 21.7086 2.43303 21.0408 0.883644 20.185C0.726083 20.098 0.593819 20.0315 0.589635 20.0372C0.57606 20.0558 -0.0675821 24.1265 -0.0673828 24.1925C-0.067144 24.265 0.733927 24.6612 1.28658 24.8621C2.39847 25.2663 3.65393 25.5518 4.82813 25.6678C5.50071 25.7341 6.83494 25.7239 7.45567 25.6477C8.33009 25.5404 9.29649 25.2665 9.9297 24.9469C10.6198 24.5983 11.3829 23.9389 11.7917 23.3377C12.4833 22.3207 12.8057 20.9208 12.6766 19.4943C12.5013 17.5568 11.5954 16.338 9.58064 15.3292C9.12147 15.0993 8.53869 14.8578 7.35864 14.4081C6.37103 14.0318 5.70936 13.6381 5.46137 13.2791C5.33874 13.1016 5.32798 13.0617 5.32798 12.7831C5.32798 12.5269 5.34308 12.458 5.4259 12.3365C5.54882 12.1563 5.78169 12.0025 6.06459 11.9149C6.35338 11.8253 7.16549 11.8291 7.74992 11.9228C8.79551 12.0902 10.1046 12.5114 11.0158 12.9735C11.122 13.0274 11.2174 13.0629 11.2279 13.0523C11.2642 13.0158 11.9114 8.92503 11.8848 8.90082C11.8329 8.85377 11.1455 8.57383 10.7503 8.4388C9.94953 8.16518 9.24973 7.99714 8.33416 7.85863C7.62159 7.75085 5.77019 7.71952 5.16872 7.80506ZM52.5276 7.80418C51.4601 7.98487 50.4621 8.52051 49.4805 9.43943L49.1578 9.74162L49.0215 8.91327L48.8855 8.08497L46.4477 8.07464L44.01 8.06436V19.9273C44.01 31.1994 44.0134 31.7902 44.0796 31.7885C44.118 31.7875 45.3588 31.5845 46.837 31.3376L49.5246 30.8886L49.5349 28.1146C49.5434 25.8046 49.554 25.344 49.5988 25.3612C49.7593 25.4231 50.5382 25.5929 50.9182 25.6489C51.4924 25.7335 52.5347 25.7333 53.1095 25.6484C54.438 25.4524 55.5066 24.9718 56.476 24.1347C57.4632 23.2821 58.2771 21.8633 58.701 20.2557C59.0222 19.0382 59.1522 17.8888 59.1545 16.2468C59.1569 14.5806 59.045 13.517 58.7413 12.3186C58.3923 10.9417 57.8785 9.95771 57.0916 9.15973C56.3367 8.39423 55.5296 7.98414 54.4232 7.80382C53.9847 7.73233 52.9508 7.73252 52.5276 7.80418ZM66.6456 7.80762C63.4441 8.2456 61.2326 10.5099 60.5136 14.0863C60.3233 15.033 60.2806 15.5256 60.2791 16.7869C60.2773 18.362 60.3892 19.3004 60.7181 20.4678C61.4487 23.0616 63.0939 24.7214 65.5913 25.3841C66.5158 25.6294 67.2459 25.7124 68.4773 25.7122C70.547 25.7118 72.2678 25.3546 73.7388 24.6202C73.9609 24.5093 74.1933 24.378 74.2553 24.3283L74.3679 24.2381L74.0778 22.383C73.9183 21.3626 73.7808 20.506 73.7724 20.4795C73.7623 20.4479 73.5886 20.5122 73.2673 20.6664C72.0275 21.2613 70.6612 21.5585 69.1542 21.5607C68.5331 21.5616 68.3282 21.5468 68.0087 21.4779C67.1354 21.2895 66.533 20.8391 66.1726 20.105C65.9872 19.7273 65.8227 19.1697 65.7692 18.7373L65.7408 18.5073H70.2804H74.8198L74.843 18.1973C74.9387 16.9173 74.9005 15.4029 74.7454 14.3263C74.4482 12.2623 73.739 10.6508 72.6398 9.54193C71.6582 8.55154 70.5132 8.00755 68.983 7.80458C68.4258 7.73069 67.1964 7.73225 66.6456 7.80762ZM33.3709 7.86544C32.2379 8.04567 31.3215 8.72914 30.8604 9.73785L30.7379 10.0054L30.5801 9.03518L30.4222 8.06496H27.9985H25.5748V16.7269V25.3889H28.3421H31.1094V19.7727V14.1565L31.398 13.8813C31.8573 13.4435 32.3923 13.2042 33.1798 13.0842C33.5825 13.0228 34.5479 13.0102 34.862 13.0621L35.0512 13.0934V10.5225V7.95158L34.8421 7.90461C34.5699 7.84347 33.6612 7.81926 33.3709 7.86544ZM36.3651 16.7269V25.3889H39.1324H41.8997V16.7269V8.06496H39.1324H36.3651V16.7269ZM68.2131 11.581C69.0661 11.8478 69.564 12.8976 69.6753 14.6643L69.7031 15.1065H67.7066H65.7101V14.9502C65.7101 14.6744 65.8345 13.8177 65.9289 13.4432C66.2165 12.3027 66.7002 11.6919 67.4422 11.5322C67.6394 11.4897 67.9928 11.512 68.2131 11.581ZM52.2742 12.1248C52.9986 12.4796 53.4344 13.4357 53.6058 15.0465C53.6615 15.5701 53.6611 17.1701 53.6051 17.7503C53.4592 19.2635 53.0206 20.4007 52.3374 21.0361C51.7091 21.6206 50.8589 21.7317 49.8332 21.3635L49.5445 21.2598V17.1468V13.034L49.7734 12.836C50.4924 12.2143 51.0293 11.9778 51.6769 11.9977C51.98 12.0071 52.0753 12.0273 52.2742 12.1248Z" fill="#6B7280"/>
</g>
<defs>
<clipPath id="clip0_10632_38579">
<rect width="75.9688" height="31.5714" fill="white" transform="translate(0 0.546875)"/>
</clipPath>
</defs>
</svg>
