<svg width="150" height="32" viewBox="0 0 150 32" fill="none" xmlns="http://www.w3.org/2000/svg">
<path d="M0.880859 0.945984V16.2526V31.5593L16.3076 16.2526L0.880859 0.945984Z" fill="url(#paint0_linear_10632_38444)"/>
<path d="M20.4525 12.1417L14.223 8.54534L0.880859 0.833923V0.947405L16.3076 16.254L20.4525 12.1417Z" fill="url(#paint1_linear_10632_38444)"/>
<path d="M0.880859 31.5598V31.6705L14.223 23.9618L20.4498 20.3628L16.3076 16.2531L0.880859 31.5598Z" fill="url(#paint2_linear_10632_38444)"/>
<path d="M20.4494 12.14L16.3044 16.2524L20.4467 20.3621L27.5646 16.2524L20.4494 12.14Z" fill="url(#paint3_linear_10632_38444)"/>
<path d="M37.3869 9.02686C38.5166 9.02686 39.5426 8.51961 39.8654 7.59735V8.88852H40.7762V5.30321H37.652V6.08714H39.8654C39.7386 7.33219 38.8625 8.18529 37.5021 8.18529C35.9343 8.18529 34.8737 7.06704 34.8737 5.26862C34.8737 3.47021 35.9228 2.34043 37.4099 2.34043C38.874 2.34043 39.7271 3.21658 39.8078 4.54234L40.7646 4.4847C40.6378 2.62864 39.4504 1.48734 37.3984 1.48734C35.3925 1.48734 33.8477 3.0206 33.8477 5.2571C33.8477 7.51665 35.3348 9.02686 37.3869 9.02686Z" fill="#1B1C20"/>
<path d="M45.9002 7.10163C45.6927 7.87403 45.197 8.27752 44.3555 8.27752C43.4562 8.27752 42.753 7.58582 42.7069 6.60591H46.7188V6.22548C46.7188 4.85361 45.9002 3.7123 44.2978 3.7123C42.8452 3.7123 41.7501 4.85361 41.7501 6.44451C41.7501 8.01237 42.8452 9.02686 44.3439 9.02686C45.6005 9.02686 46.4421 8.33516 46.6957 7.19385L45.9002 7.10163ZM42.73 5.98338C42.8452 5.15334 43.3871 4.43859 44.2978 4.43859C45.2547 4.43859 45.7043 5.1764 45.7389 5.98338H42.73Z" fill="#1B1C20"/>
<path d="M47.8861 7.71263C47.8861 8.69254 48.3933 9.02686 49.1081 9.02686C49.6615 9.02686 50.0304 8.87699 50.3993 8.60031V7.95472C50.1111 8.11612 49.7767 8.25446 49.4539 8.25446C49.0159 8.25446 48.8314 8.04695 48.8314 7.59735V4.54234H50.2494V3.85064H48.8314V2.45571H48.2896L48.1397 3.15894C48.0244 3.64313 47.9207 3.8737 47.448 3.96592L47.1252 4.02357V4.54234H47.8861V7.71263Z" fill="#1B1C20"/>
<path d="M53.3085 3.85064V8.88852H54.2653V3.85064H53.3085ZM53.2854 2.70934H54.2768V1.62567H53.2854V2.70934Z" fill="#1B1C20"/>
<path d="M55.7443 7.71263C55.7443 8.69254 56.2515 9.02686 56.9663 9.02686C57.5196 9.02686 57.8885 8.87699 58.2574 8.60031V7.95472C57.9692 8.11612 57.6349 8.25446 57.3121 8.25446C56.874 8.25446 56.6896 8.04695 56.6896 7.59735V4.54234H58.1076V3.85064H56.6896V2.45571H56.1478L55.9979 3.15894C55.8826 3.64313 55.7788 3.8737 55.3062 3.96592L54.9834 4.02357V4.54234H55.7443V7.71263Z" fill="#1B1C20"/>
<path d="M61.8237 6.37534C61.8237 5.24557 62.3886 4.46164 63.4031 4.46164C64.4291 4.46164 65.0056 5.24557 65.0056 6.37534C65.0056 7.49359 64.4291 8.28905 63.4031 8.28905C62.3886 8.28905 61.8237 7.49359 61.8237 6.37534ZM65.9855 6.37534C65.9855 4.80749 64.8903 3.7123 63.4031 3.7123C61.9275 3.7123 60.8438 4.80749 60.8438 6.37534C60.8438 7.9432 61.9275 9.02686 63.4031 9.02686C64.8903 9.02686 65.9855 7.9432 65.9855 6.37534Z" fill="#1B1C20"/>
<path d="M67.9327 5.99491C67.9327 5.07264 68.5321 4.47317 69.293 4.47317C70.0885 4.47317 70.492 5.00347 70.492 5.84504V8.88852H71.4488V5.76434C71.4488 4.58845 70.9185 3.7123 69.6043 3.7123C68.8549 3.7123 68.1748 4.13885 67.9327 4.74985V3.85064H66.9758V8.88852H67.9327V5.99491Z" fill="#1B1C20"/>
<path d="M40.916 27.2751C42.8563 27.2751 44.5194 26.6283 45.3048 25.1731V26.9979H48.3769V19.5369H41.5858V22.0778H45.0738C44.5656 23.51 43.2028 24.3184 41.6089 24.3184C38.9525 24.3184 37.4511 22.4936 37.4511 19.7217C37.4511 17.0191 38.9063 15.2636 41.3317 15.2636C43.4338 15.2636 44.6811 16.4417 44.8659 18.2665L48.2845 18.151C47.9612 14.4782 45.4896 12.1683 41.2624 12.1683C37.1046 12.1683 33.8477 15.2405 33.8477 19.7217C33.8477 24.226 36.8736 27.2751 40.916 27.2751Z" fill="#1B1C20"/>
<path d="M53.3032 21.8699C53.3032 20.1606 53.973 18.9825 55.4514 18.9825C56.9066 18.9825 57.6227 20.1606 57.6227 21.8699C57.6227 23.5793 56.9066 24.7573 55.4514 24.7573C53.973 24.7573 53.3032 23.5793 53.3032 21.8699ZM60.9951 21.8699C60.9951 18.7054 58.7314 16.4648 55.4514 16.4648C52.1713 16.4648 49.9307 18.7054 49.9307 21.8699C49.9307 25.0576 52.1713 27.2751 55.4514 27.2751C58.7314 27.2751 60.9951 25.0576 60.9951 21.8699Z" fill="#1B1C20"/>
<path d="M65.4617 21.8699C65.4617 20.1606 66.1316 18.9825 67.6099 18.9825C69.0652 18.9825 69.7813 20.1606 69.7813 21.8699C69.7813 23.5793 69.0652 24.7573 67.6099 24.7573C66.1316 24.7573 65.4617 23.5793 65.4617 21.8699ZM73.1537 21.8699C73.1537 18.7054 70.89 16.4648 67.6099 16.4648C64.3299 16.4648 62.0893 18.7054 62.0893 21.8699C62.0893 25.0576 64.3299 27.2751 67.6099 27.2751C70.89 27.2751 73.1537 25.0576 73.1537 21.8699Z" fill="#1B1C20"/>
<path d="M84.1821 19.9758C84.1821 19.4445 84.0435 18.9825 83.8125 18.5668C84.3207 18.4282 84.9212 18.3589 85.4063 18.3589V15.7949C84.2976 15.7949 83.2119 16.4879 82.6113 17.3194C81.7567 16.765 80.5786 16.4648 79.3313 16.4648C76.5132 16.4648 74.5036 17.8045 74.5036 19.9758C74.5036 21.0846 75.0348 21.9854 75.9588 22.586C74.8963 22.9787 74.2495 23.7409 74.2495 24.688C74.2495 25.5658 74.7808 26.3511 75.7047 26.6514C74.5267 26.7669 73.7182 27.5061 73.7182 28.4531C73.7182 30.3704 76.1898 31.0171 79.0772 31.0171C82.3572 31.0171 85.4063 29.8853 85.4063 27.3213C85.4063 25.6351 84.2283 24.4108 81.9415 24.4108H77.7374C77.0676 24.4108 76.7904 24.1105 76.7904 23.7178C76.7904 23.4638 76.9059 23.279 77.0676 23.1404C77.7374 23.3483 78.4997 23.4638 79.3313 23.4638C82.1493 23.4638 84.1821 22.124 84.1821 19.9758ZM76.5594 28.0605C76.5594 27.5292 76.9752 27.2751 77.5064 27.2751H81.133C81.8953 27.2751 82.311 27.4599 82.311 28.0143C82.311 28.7765 80.9482 29.1692 79.1003 29.1692C77.5988 29.1692 76.5594 28.8689 76.5594 28.0605ZM80.7403 19.9758C80.7403 21.0153 80.1628 21.6158 79.3544 21.6158C78.569 21.6158 77.9915 21.0153 77.9915 19.9758C77.9915 18.9594 78.569 18.382 79.3544 18.382C80.1628 18.382 80.7403 18.9594 80.7403 19.9758Z" fill="#1B1C20"/>
<path d="M86.5102 12.4455V26.9979H89.8364V12.4455H86.5102Z" fill="#1B1C20"/>
<path d="M99.3597 23.3714C98.9902 24.3184 98.2741 24.7573 97.1191 24.7573C95.8256 24.7573 94.8092 23.9719 94.7168 22.6091H102.109V21.5927C102.109 18.7978 100.33 16.4648 96.9343 16.4648C93.7929 16.4648 91.4368 18.7978 91.4368 22.0316C91.4368 25.2886 93.7467 27.2751 97.0036 27.2751C99.6831 27.2751 101.508 25.9585 102.039 23.6255L99.3597 23.3714ZM94.763 20.8305C94.9478 19.7448 95.5715 18.8902 96.9112 18.8902C98.1817 18.8902 98.8285 19.8141 98.8978 20.8305H94.763Z" fill="#1B1C20"/>
<path d="M111.475 19.4445V15.2636H113.993C115.91 15.2636 116.696 16.0028 116.696 17.3656C116.696 18.7285 115.91 19.4445 113.993 19.4445H111.475ZM111.475 22.2626H114.132C117.897 22.2626 120.091 20.484 120.091 17.3425C120.091 14.201 117.897 12.4455 114.132 12.4455H107.987V26.9979H111.475V22.2626Z" fill="#1B1C20"/>
<path d="M121.407 12.4455V26.9979H124.733V12.4455H121.407Z" fill="#1B1C20"/>
<path d="M132.94 22.6553C132.94 24.1105 131.97 25.0345 130.745 25.0345C130.029 25.0345 129.567 24.6649 129.567 24.0643C129.567 23.2559 130.214 23.0018 131.254 22.7939L132.94 22.4474V22.6553ZM136.22 20.4609C136.22 17.6659 134.303 16.4648 131.623 16.4648C128.69 16.4648 127.05 17.9893 126.703 20.1837L129.798 20.4147C129.983 19.56 130.468 18.9594 131.438 18.9594C132.455 18.9594 132.94 19.5369 132.94 20.5071V20.6919L130.075 21.2001C127.812 21.6389 126.333 22.4705 126.333 24.4339C126.333 26.1894 127.627 27.2289 129.683 27.2289C131.277 27.2289 132.547 26.6052 133.125 25.4272C133.425 26.5821 134.326 27.2289 135.55 27.2289C136.566 27.2289 137.213 26.9286 137.721 26.559V24.7804C137.421 24.919 137.167 24.9652 136.867 24.9652C136.451 24.9652 136.22 24.7342 136.22 24.2029V20.4609Z" fill="#1B1C20"/>
<path d="M143.245 30.74L149.135 16.7419H145.855L143.337 23.1404H143.245L140.773 16.7419H137.262L141.466 27.0903L139.965 30.74H143.245Z" fill="#1B1C20"/>
<defs>
<linearGradient id="paint0_linear_10632_38444" x1="8.59363" y1="0.944687" x2="8.59363" y2="31.5587" gradientUnits="userSpaceOnUse">
<stop stop-color="#257CB0"/>
<stop offset="0.2863" stop-color="#4A93B5"/>
<stop offset="0.767" stop-color="#78BCBB"/>
<stop offset="1" stop-color="#89CFBD"/>
</linearGradient>
<linearGradient id="paint1_linear_10632_38444" x1="0.879752" y1="8.54407" x2="20.4513" y2="8.54407" gradientUnits="userSpaceOnUse">
<stop stop-color="#52C1AD"/>
<stop offset="1" stop-color="#DEE89A"/>
</linearGradient>
<linearGradient id="paint2_linear_10632_38444" x1="10.6654" y1="16.2524" x2="10.6654" y2="31.6705" gradientUnits="userSpaceOnUse">
<stop stop-color="#EC413D"/>
<stop offset="0.1668" stop-color="#DA4452"/>
<stop offset="0.5748" stop-color="#B0487A"/>
<stop offset="0.8619" stop-color="#954A92"/>
<stop offset="1" stop-color="#8A4A9D"/>
</linearGradient>
<linearGradient id="paint3_linear_10632_38444" x1="21.9346" y1="12.1402" x2="21.9346" y2="20.3627" gradientUnits="userSpaceOnUse">
<stop stop-color="#F58879"/>
<stop offset="0.1194" stop-color="#F69079"/>
<stop offset="0.7128" stop-color="#FCB877"/>
<stop offset="1" stop-color="#FEC874"/>
</linearGradient>
</defs>
</svg>
