<svg width="134" height="32" viewBox="0 0 134 32" fill="none" xmlns="http://www.w3.org/2000/svg">
<path fill-rule="evenodd" clip-rule="evenodd" d="M44.628 25.179C45.2127 26.5042 45.9922 27.7125 47.0056 28.7259C48.058 29.7393 49.2273 30.5578 50.5525 31.1035C51.9167 31.6882 53.3978 31.961 54.8789 31.961C56.36 31.961 57.8411 31.6882 59.2053 31.1035C60.5306 30.5578 61.6999 29.7393 62.7522 28.7259C63.7656 27.7125 64.5452 26.5042 65.1298 25.179C65.7145 23.8148 65.9873 22.3727 65.9873 20.8526V1.94881L60.1408 -3.05176e-05V11.0694C59.829 10.9135 59.5172 10.7576 59.2053 10.6407C57.8411 10.056 56.399 9.78316 54.8789 9.78316C53.3978 9.78316 51.9167 10.056 50.5525 10.6407C49.2273 11.1863 48.058 12.0048 47.0056 13.0182C45.9922 14.0316 45.2127 15.2399 44.628 16.5651C44.0823 17.9293 43.7705 19.3715 43.7705 20.8526C43.7705 22.3727 44.0823 23.8148 44.628 25.179ZM54.8789 15.5907C57.7632 15.5907 60.1408 17.9683 60.1408 20.8526C60.1408 23.7759 57.7632 26.1145 54.8789 26.1145C51.9946 26.1145 49.617 23.7759 49.617 20.8526C49.617 17.9683 51.9946 15.5907 54.8789 15.5907ZM36.3444 10.9914L36.3055 9.74411H42.152V31.6881H36.3055L36.3444 30.7916C34.7853 31.5711 33.0704 31.9999 31.3164 31.9999C29.8353 31.9999 28.3542 31.6881 26.99 31.1424C25.6648 30.5577 24.4955 29.7782 23.4431 28.7648C22.4297 27.7124 21.6502 26.5431 21.0655 25.2179C20.5198 23.8537 20.208 22.3726 20.208 20.8915C20.208 19.4104 20.5198 17.9292 21.0655 16.5651C21.6502 15.2398 22.4297 14.0316 23.4431 13.0182C24.4955 12.0048 25.6648 11.2252 26.99 10.6406C28.3542 10.0559 29.8353 9.78308 31.3164 9.78308C33.0704 9.78308 34.7853 10.2118 36.3444 10.9914ZM31.3164 26.1534C32.2519 26.1534 33.1873 25.8805 33.9668 25.4128C34.7854 24.9841 35.409 24.3215 35.8767 23.5419C36.3444 22.7234 36.5783 21.8269 36.5783 20.8915C36.5783 20.112 36.4224 19.3714 36.0716 18.6698C35.6818 17.7733 35.0192 16.9938 34.1617 16.4871C33.3432 15.9024 32.3298 15.6296 31.3164 15.6296C28.4321 15.6296 26.0545 18.0072 26.0545 20.8915C26.0545 23.7758 28.4321 26.1534 31.3164 26.1534ZM20.268 27.1666C18.1632 30.2068 14.7333 31.9997 11.1084 31.9997C9.58831 31.9997 8.14616 31.6879 6.78197 31.1422C5.45676 30.5576 4.24848 29.7781 3.23508 28.7647C2.22168 27.7123 1.40317 26.543 0.857495 25.2178C0.272842 23.8536 0 22.3725 0 20.8913C0 19.4102 0.272842 17.9291 0.857495 16.5649C1.40317 15.2397 2.22168 14.0704 3.23508 13.018C4.24848 12.0046 5.45676 11.2251 6.78197 10.6404C8.14616 10.0558 9.58831 9.78293 11.1084 9.78293C12.9013 9.78293 14.6943 10.2117 16.2923 11.0692C17.8124 11.8877 19.1766 13.057 20.19 14.4991L15.3959 17.8511C14.4214 16.448 12.7844 15.6295 11.1084 15.6295C8.18514 15.6295 5.84653 17.9681 5.84653 20.8913C5.84653 23.7756 8.18514 26.1532 11.1084 26.1532C12.8234 26.1532 14.4604 25.2957 15.4348 23.8536L20.268 27.1666ZM82.564 30.9086C81.1609 31.5322 79.6798 31.844 78.1597 31.844C75.1974 31.844 72.4691 30.6747 70.3643 28.6089C68.2985 26.5431 67.1682 23.7758 67.1682 20.8525C67.1682 17.9293 68.2985 15.1619 70.3643 13.0961C72.4691 11.0304 75.1974 9.86105 78.1597 9.86105C81.0829 9.86105 83.8503 11.0304 85.9161 13.0961C87.9818 15.1619 89.1122 17.9293 89.1122 20.8525V23.6978H73.6384C74.5738 25.179 76.2498 26.1924 78.1597 26.1924C79.6408 26.1924 81.005 25.6077 82.0184 24.5164L86.1499 28.414C85.1365 29.4664 83.9282 30.3239 82.564 30.9086ZM78.1597 15.5127C76.2498 15.5127 74.5738 16.5261 73.6384 18.0462H82.681C81.7066 16.5261 80.0306 15.5127 78.1597 15.5127ZM107.226 13.213C105.355 11.3811 102.899 10.3677 100.288 10.3677C98.8848 10.3677 97.5596 10.6406 96.3513 11.1863V9.74411H90.5048V19.2934C90.4658 19.6053 90.4658 19.8781 90.4658 20.1899H90.5048V31.6881H96.3513V19.6053C96.6242 17.6954 98.2612 16.2143 100.288 16.2143C102.471 16.2143 104.264 18.0072 104.264 20.1899V31.6881H110.11V20.1899C110.11 17.5395 109.058 15.0839 107.226 13.213ZM127.774 10.9914L127.735 9.74411H133.582V31.6881H127.735L127.774 30.7916C126.215 31.5711 124.5 31.9999 122.746 31.9999C121.265 31.9999 119.784 31.6881 118.42 31.1424C117.094 30.5577 115.925 29.7782 114.873 28.7648C113.859 27.7124 113.08 26.5431 112.495 25.2179C111.95 23.8537 111.638 22.3726 111.638 20.8915C111.638 19.4104 111.95 17.9292 112.495 16.5651C113.08 15.2398 113.859 14.0316 114.873 13.0182C115.925 12.0048 117.094 11.2252 118.42 10.6406C119.784 10.0559 121.265 9.78308 122.746 9.78308C124.5 9.78308 126.215 10.2118 127.774 10.9914ZM122.746 26.1534C123.682 26.1534 124.617 25.8805 125.397 25.4128C126.215 24.9841 126.839 24.3215 127.306 23.5419C127.774 22.7234 128.008 21.8269 128.008 20.8915C128.008 20.112 127.852 19.3714 127.501 18.6698C127.111 17.7733 126.449 16.9938 125.591 16.4871C124.773 15.9024 123.759 15.6296 122.746 15.6296C119.862 15.6296 117.484 18.0072 117.484 20.8915C117.484 23.7758 119.862 26.1534 122.746 26.1534Z" fill="white"/>
</svg>
