<svg width="141" height="31" viewBox="0 0 141 31" fill="none" xmlns="http://www.w3.org/2000/svg">
<g clip-path="url(#clip0_10632_38588)">
<path fill-rule="evenodd" clip-rule="evenodd" d="M7.19016 0.939619C6.02141 1.46598 4.3908 3.15476 3.96079 4.28378C3.75662 4.82025 3.63257 8.53483 3.63257 14.1101C3.63257 24.3448 3.75755 25.0675 5.90541 27.2517C8.39356 29.7821 8.32767 29.7702 19.719 29.7702C29.7397 29.7702 29.7766 29.7677 30.7791 29.0593C31.3326 28.6684 32.1679 27.8519 32.6353 27.245L33.4854 26.1414V16.3132C33.4854 5.30924 33.4749 5.24919 31.1653 2.96174C28.8748 0.693288 28.7563 0.672148 17.8629 0.592795C10.1717 0.536727 7.92271 0.609953 7.19016 0.939619ZM12.0059 3.65601C13.2171 4.46424 14.0111 6.23267 13.7052 7.43982C13.5898 7.8951 13.0305 8.72816 12.4619 9.29128C11.601 10.1439 11.2034 10.3131 10.0826 10.3042C8.46378 10.291 7.51003 9.81184 6.70942 8.60928C5.91407 7.41439 5.95119 6.03935 6.81275 4.77307C8.10492 2.87411 10.1693 2.43016 12.0059 3.65601ZM18.1723 3.23075C18.1723 3.37842 17.9783 3.65876 17.7416 3.85362C17.5047 4.04817 17.1354 4.62723 16.9209 5.1398L16.5309 6.07213L16.1559 5.0531C15.9499 4.49273 15.6776 3.79295 15.5515 3.49791C15.3519 3.0319 15.5085 2.96174 16.7471 2.96174C17.531 2.96174 18.1723 3.08276 18.1723 3.23075ZM27.3011 3.53314C31.7892 5.5525 32.3924 11.3548 28.4042 14.1446C27.2361 14.9618 26.8413 15.0638 24.8476 15.0638C22.8835 15.0638 22.4464 14.9547 21.3271 14.1867C19.952 13.243 18.4804 10.7721 18.4835 9.41231C18.4934 4.90359 23.2693 1.71906 27.3011 3.53314ZM82.5183 16.9021V26.2467H83.8962H85.2744L85.3657 24.2032C85.4161 23.0791 85.5964 22.1222 85.7666 22.0772C85.9367 22.0319 86.9112 22.94 87.9321 24.0957L89.7882 26.1965L91.7217 26.2216C92.7852 26.2355 93.6502 26.1432 93.644 26.0169C93.6378 25.8908 92.3939 24.4774 90.8793 22.8765L88.1254 19.9659L90.8066 17.2851L93.4875 14.6042H91.4909H89.4943L87.3984 16.664L85.3025 18.7239V13.1407V7.55747H83.9104H82.5183V16.9021ZM106.648 16.9021V26.2467H108.04C109.051 26.2467 109.433 26.1249 109.433 25.8022C109.433 25.4367 109.666 25.4627 110.747 25.9486C116.63 28.5934 121.816 21.7559 118.021 16.3589C116.628 14.3782 112.593 13.6058 110.437 14.9073L109.433 15.5145V11.5358V7.55747H108.04H106.648V16.9021ZM120.878 16.8852V26.2467H122.43H123.981L123.899 16.9787L123.817 7.71066L122.348 7.61721L120.878 7.52377V16.8852ZM42.6114 17.6681V26.2467L46.4011 26.2449C50.796 26.2431 52.1228 25.9527 53.5976 24.6701C55.7383 22.8088 55.6956 19.7478 53.5014 17.7572C52.89 17.2027 52.5584 16.749 52.7642 16.749C53.4302 16.749 54.3645 14.8185 54.3657 13.44C54.3673 11.655 53.6665 10.4424 52.2074 9.70525C51.1642 9.17823 50.3849 9.08938 46.8001 9.08938H42.6114V17.6681ZM16.7586 12.815C17.192 13.6753 17.187 13.728 16.6939 13.5301C15.8271 13.1817 14.6754 12.83 13.7179 12.6207L12.8211 12.4249L13.8772 11.7142C14.4579 11.3232 15.1388 10.6231 15.3902 10.1581L15.8471 9.31243L16.069 10.5992C16.1909 11.307 16.5012 12.3042 16.7586 12.815ZM50.6917 12.4289C52.185 14.2552 50.788 15.8298 47.674 15.8298H45.705V13.6505V11.4712L47.9076 11.5947C49.7532 11.6979 50.2048 11.8334 50.6917 12.4289ZM8.11823 12.7874C8.99371 13.0968 9.01103 13.1343 8.42759 13.4471C8.08729 13.6294 7.42589 14.0426 6.95814 14.3656L6.10742 14.9523V13.3971C6.10742 12.0021 6.16341 11.8735 6.64879 12.1504C6.9467 12.3204 7.6078 12.607 8.11823 12.7874ZM58.3113 15.1226C57.5029 15.5685 56.8418 16.0216 56.8418 16.1303C56.8418 16.2391 57.2569 16.7219 57.7646 17.2033C58.6404 18.0345 58.7168 18.0525 59.2687 17.5578C60.1581 16.7609 61.6659 16.4312 62.7347 16.8C63.5075 17.067 64.2664 17.8445 64.2664 18.37C64.2664 18.4411 63.2832 18.5897 62.0813 18.7003C59.4366 18.9438 58.0931 19.4622 57.2031 20.583C56.3771 21.6228 56.2902 23.9296 57.037 24.9854C58.1265 26.5262 61.0747 27.0053 63.1183 25.9735C64.025 25.5154 64.2664 25.4832 64.2664 25.8203C64.2664 26.1214 64.6753 26.2467 65.6584 26.2467H67.0505L67.0499 21.8808C67.0496 16.8574 66.7047 15.7348 64.8851 14.8347C63.1696 13.986 60.1321 14.1192 58.3113 15.1226ZM73.1603 14.7412C72.6925 14.9829 72.3095 15.0509 72.3095 14.8926C72.3095 14.7338 71.6135 14.6042 70.7628 14.6042H69.2161V20.4255V26.2467H70.7628H72.3095V22.4853C72.3095 19.5321 72.416 18.5732 72.8049 18.0232C73.4298 17.1399 74.597 16.6907 75.6126 16.9432C76.8537 17.2517 77.2592 18.6731 77.2592 22.7136V26.2467H78.6514H80.0435V21.9476C80.0435 17.0391 79.7292 15.8849 78.1286 14.9186C76.9054 14.1799 74.4185 14.0911 73.1603 14.7412ZM96.2847 14.7372C95.7742 14.9654 95.0781 15.3635 94.7378 15.6215C94.1275 16.0841 94.1316 16.1037 95.0266 17.0311C95.8967 17.9334 95.9644 17.9515 96.6899 17.4808C98.561 16.2666 100.684 16.4107 101.32 17.795C101.641 18.4907 101.607 18.5075 99.4874 18.7028C96.8849 18.9423 95.5233 19.4647 94.6566 20.556C93.67 21.7981 93.5153 23.0028 94.1718 24.3331C95.1976 26.4128 98.1677 27.1763 100.55 25.9735C101.457 25.5154 101.698 25.4832 101.698 25.8203C101.698 26.1206 102.104 26.2467 103.067 26.2467H104.436L104.263 21.5745C104.069 16.3574 103.827 15.5605 102.207 14.7988C100.904 14.1867 97.5923 14.152 96.2847 14.7372ZM128.861 14.9066C126.427 16.2146 125.226 19.0404 125.859 21.9647C126.704 25.8684 131.129 27.6935 135.054 25.7572C137.002 24.7954 137.588 23.9517 136.757 23.3058C135.415 22.2622 135.174 22.2332 134.329 23.0092C133.88 23.421 133.106 23.8462 132.609 23.9544C131.447 24.2072 129.527 23.3043 129.012 22.2638L128.633 21.4979L133.108 21.413L137.584 21.3285L137.577 19.881C137.568 17.9995 136.682 16.1083 135.378 15.1888C133.926 14.1643 130.516 14.0166 128.861 14.9066ZM15.7884 16.1359C18.9884 18.3074 19.6129 22.4559 17.1564 25.2265C14.5568 28.1589 10.3419 28.1592 7.74298 25.2278C5.07231 22.2151 5.95057 17.6736 9.55426 15.8613C11.3832 14.9416 14.212 15.066 15.7884 16.1359ZM31.1083 17.7679L31.0105 18.4806L29.6701 17.8985L28.3294 17.3164L29.6701 16.4732L31.0105 15.6304L31.1083 16.3427C31.1621 16.7345 31.1621 17.3761 31.1083 17.7679ZM133.831 17.1837C133.99 17.2811 134.266 17.7744 134.443 18.2802L134.767 19.2H131.661H128.555L129.141 18.2042C130.026 16.6975 132.247 16.214 133.831 17.1837ZM21.8846 17.3678C22.31 17.5051 23.0653 17.7064 23.5634 17.8155L24.4692 18.0134L23.5634 18.5973C23.0653 18.9184 22.3445 19.6298 21.9619 20.1777L21.2659 21.1743L21.259 20.2637C21.2554 19.7628 20.9769 18.7527 20.6407 18.0182C20.0795 16.7934 20.0736 16.7015 20.5701 16.9009C20.8677 17.0204 21.4592 17.2302 21.8846 17.3678ZM114.217 17.1843C115.453 17.6956 116.239 19.0214 116.239 20.594C116.239 21.4574 115.999 21.9497 115.186 22.754C113.265 24.6566 110.443 23.9238 109.74 21.3394C109.237 19.4892 110.357 17.3804 112.062 16.9692C113.071 16.7259 113.12 16.7308 114.217 17.1843ZM51.0769 19.2223C51.7058 19.712 51.8921 20.1274 51.8921 21.0383C51.8921 22.8532 50.8777 23.4893 47.9834 23.4893H45.705V21.0383V18.5872H47.9834C49.82 18.5872 50.4198 18.7104 51.0769 19.2223ZM29.3339 20.6418C30.2889 21.2007 31.1653 22.7025 31.1653 23.7807C31.1653 25.5439 29.1464 27.4702 27.2983 27.4702C26.0071 27.4702 24.4457 26.4468 23.8505 25.2106C23.1353 23.7252 23.4914 22.2378 24.8439 21.0615C26.1128 19.958 27.8821 19.7925 29.3339 20.6418ZM64.1336 21.8808C63.8497 23.0782 62.5754 24.1021 61.3692 24.1021C59.9347 24.1021 59.1762 23.4731 59.4253 22.4905C59.6647 21.5451 60.7353 21.0962 62.8303 21.0625C64.3161 21.0386 64.331 21.0478 64.1336 21.8808ZM101.519 21.8808C101.414 22.3444 100.986 23.0337 100.568 23.4127C99.2401 24.6168 96.7487 24.1665 96.7487 22.7225C96.7487 21.7098 98.0319 21.0658 100.081 21.0505C101.7 21.0383 101.709 21.0432 101.519 21.8808ZM21.5993 26.691C22.1599 27.2633 21.8639 27.4723 20.4925 27.4723C19.0639 27.4723 18.7737 27.2029 19.531 26.5804C19.7679 26.3859 20.1441 25.7909 20.3669 25.2584L20.7715 24.2902L21.0432 25.345C21.1922 25.9253 21.4425 26.5308 21.5993 26.691Z" fill="#6B7280"/>
</g>
<defs>
<clipPath id="clip0_10632_38588">
<rect width="134.666" height="30.5625" fill="white" transform="translate(2.94043 0.0513306)"/>
</clipPath>
</defs>
</svg>
