<svg width="95" height="19" viewBox="0 0 95 19" fill="none" xmlns="http://www.w3.org/2000/svg">
<g clip-path="url(#clip0_10632_38585)">
<path fill-rule="evenodd" clip-rule="evenodd" d="M81.9867 1.20697C81.1597 1.33951 79.8892 1.79846 79.1178 2.24363C77.6727 3.0774 76.2076 4.81954 75.6262 6.39539C74.6613 9.00961 74.9903 12.4768 76.3988 14.5393C77.71 16.4593 79.4321 17.5432 81.8974 17.9999C83.4393 18.2856 85.0061 18.0903 86.3918 17.4399C86.9052 17.1989 88.2116 16.3954 88.7514 15.9886C89.0233 15.7835 89.3832 16.0336 89.9633 16.8305C90.7526 17.915 91.048 18.0601 91.5205 17.5953L91.772 17.3479L91.7706 9.86009C91.7698 5.74192 91.7429 2.27598 91.7107 2.15816C91.6341 1.87728 91.2384 1.67541 90.9188 1.75433C90.7764 1.7895 90.4012 2.12803 90.0656 2.5242C89.4253 3.27998 89.1058 3.44829 88.7461 3.21941C88.6237 3.1416 88.1682 2.84178 87.7336 2.55313C86.8919 1.99409 86.1972 1.64487 85.3681 1.36379C84.7848 1.16615 82.8128 1.07464 81.9867 1.20697ZM34.1883 1.88051C33.3605 2.05849 32.417 2.48762 31.5637 3.07428C31.2034 3.32201 30.9078 3.49223 30.9068 3.45252C30.9058 3.41271 30.6142 3.07418 30.2589 2.69998C29.5528 1.9563 29.2382 1.84865 28.8594 2.22125C28.658 2.41929 28.6544 2.55716 28.6544 10.127V17.8312L28.8823 17.9881C29.0647 18.1139 29.4276 18.145 30.7086 18.145C32.2372 18.145 32.317 18.135 32.5255 17.9167C32.7404 17.6917 32.7437 17.6239 32.7738 12.9532L32.8043 8.21786L33.0753 7.71394C33.6961 6.56057 34.5953 6.00062 35.8269 6.00062C37.079 6.00062 38.0042 6.56108 38.6184 7.69156C38.8468 8.11193 38.8502 8.17553 38.9008 12.926C38.9482 17.3658 38.9661 17.7487 39.1348 17.9148C39.2915 18.0691 39.5464 18.0991 40.9311 18.1265C42.4593 18.1565 42.5598 18.1466 42.8285 17.9388L43.1121 17.7193L43.0782 12.5654L43.0445 7.41159L42.7662 6.66478C41.8324 4.1577 40.1222 2.56553 37.7189 1.96587C36.5709 1.67945 35.2703 1.648 34.1883 1.88051ZM3.55088 2.22125C3.34953 2.41929 3.34595 2.55716 3.34595 10.075V17.7273L3.61594 17.9361C3.86329 18.1274 4.0221 18.145 5.51151 18.145C7.32922 18.145 7.47237 18.0952 7.59706 17.4199C7.63087 17.2367 7.64502 13.7922 7.62841 9.76538C7.59941 2.72961 7.59061 2.43562 7.403 2.23183C7.21928 2.03218 7.10626 2.01969 5.4818 2.01969C3.89239 2.01969 3.73961 2.03561 3.55088 2.22125ZM14.4508 2.09678C14.3876 2.1375 12.8545 3.87158 11.0439 5.95023C8.28131 9.12198 7.75209 9.77909 7.75199 10.0374C7.75188 10.2966 8.28192 10.9482 11.1124 14.1695L14.4729 17.9938H16.5134H18.5539L18.7016 17.7349C18.7883 17.5832 18.8219 17.3744 18.7832 17.231C18.7467 17.0963 17.3795 15.492 15.7447 13.6661C13.4748 11.1305 12.7726 10.2842 12.7726 10.0836C12.7726 9.88534 13.4997 8.98522 15.7441 6.40547C18.8549 2.82968 18.9125 2.74432 18.556 2.24373C18.4007 2.02573 18.3451 2.01969 16.4811 2.0212C15.4276 2.0221 14.514 2.05607 14.4508 2.09678ZM24.3342 2.14567C24.2471 2.215 23.5236 3.00888 22.7264 3.90988L21.2771 5.548V11.6411V17.734L21.5014 17.9395C21.7074 18.1284 21.8569 18.145 23.3503 18.145C24.9387 18.145 24.9808 18.1394 25.2266 17.8976L25.4781 17.6503V10.1005C25.4781 2.61521 25.4762 2.5485 25.2657 2.28525C25.0336 1.995 24.6045 1.9307 24.3342 2.14567ZM49.7619 2.12219C46.9538 2.60231 45.0234 5.37939 45.5948 8.11707C45.8347 9.2666 46.2867 10.1068 47.0898 10.8959C48.398 12.1816 49.2269 12.3961 52.8948 12.3986C55.447 12.4004 55.4657 12.4019 55.687 12.6336C55.9925 12.9535 55.9799 13.4492 55.6582 13.7655L55.4068 14.0129H50.645H45.8832L45.6709 14.2784C45.4769 14.521 45.4585 14.6785 45.4585 16.097C45.4585 17.6117 45.4648 17.6564 45.71 17.8976L45.9615 18.145L50.6539 18.1433C54.3296 18.1419 55.4962 18.1102 56.0386 17.9972C59.263 17.3252 61.0905 13.8026 59.7006 10.9384C59.1444 9.79199 58.2247 8.9837 56.8831 8.46255C56.2996 8.23589 56.1155 8.22108 53.2623 8.17038L50.2562 8.11707L50.0091 7.83427C49.5769 7.33972 49.7355 6.58517 50.3296 6.30781C50.6138 6.17518 51.2686 6.1518 54.6985 6.1518C58.1844 6.1518 58.7641 6.13043 58.9608 5.99488C59.1809 5.8433 59.1886 5.78051 59.1886 4.13775V2.43743L58.9186 2.22861C58.6549 2.02452 58.552 2.01999 54.4358 2.03158C52.1188 2.03803 50.0156 2.07884 49.7619 2.12219ZM61.4428 2.22125C61.2541 2.4069 61.2379 2.55716 61.2379 4.12051C61.2379 6.12166 61.2519 6.1518 62.1824 6.1518C62.5904 6.1518 62.8209 6.20642 62.994 6.34419C63.2356 6.53648 63.236 6.54031 63.2914 9.44328C63.3455 12.2853 63.3529 12.3677 63.6284 13.1452C64.4507 15.4665 66.1507 17.0847 68.5641 17.8434C69.1727 18.0348 69.5853 18.0766 71.2921 18.1196C73.9236 18.1859 73.7384 18.3428 73.7384 16.0442C73.7384 14.5537 73.7166 14.3275 73.5591 14.191C73.4188 14.0696 73.0117 14.0247 71.6892 13.985C70.4642 13.9481 69.8646 13.8869 69.5124 13.7626C68.8452 13.5273 68.0832 12.8281 67.7838 12.1765C67.5509 11.6694 67.5379 11.5276 67.5073 9.15191L67.4753 6.65934L67.7331 6.40557L67.9911 6.1518H70.6599C74.0525 6.1518 73.7639 6.34812 73.7196 4.06992C73.6883 2.45971 73.6792 2.39822 73.4453 2.21208C73.2136 2.02785 72.9593 2.01969 67.4256 2.01969C61.7844 2.01969 61.6429 2.02443 61.4428 2.22125ZM85.0835 5.7406C86.4438 6.45656 87.363 7.83941 87.4487 9.29966C87.6264 12.3162 84.8497 14.6228 82.1272 13.7202C80.9385 13.3262 80.1303 12.567 79.6645 11.4071C79.4767 10.9394 79.4351 10.6321 79.4306 9.67921C79.4235 8.17713 79.6554 7.45462 80.4128 6.61892C81.265 5.67832 82.1296 5.33294 83.5237 5.37637C84.3425 5.40187 84.5173 5.44269 85.0835 5.7406Z" fill="#6B7280"/>
</g>
<defs>
<clipPath id="clip0_10632_38585">
<rect width="89.8438" height="17.9688" fill="white" transform="translate(2.5 0.348206)"/>
</clipPath>
</defs>
</svg>
