<svg width="155" height="27" viewBox="0 0 155 27" fill="none" xmlns="http://www.w3.org/2000/svg">
<g clip-path="url(#clip0_10632_38591)">
<path fill-rule="evenodd" clip-rule="evenodd" d="M21.8185 1.59431C20.5446 2.38483 20.2732 2.85529 19.2146 6.10906L18.2295 9.13752L16.5485 6.15658L14.8674 3.17592L11.4257 3.09792L7.98434 3.01993L7.69352 3.79675C7.5335 4.22416 7.15677 5.39121 6.8563 6.39054C5.31709 11.5079 3.71453 16.6654 3.48623 17.2356C3.34467 17.5887 3.229 18.4543 3.229 19.1594C3.229 21.5569 4.88802 23.1626 7.36524 23.1626C8.34181 23.1626 8.68882 22.996 9.54779 22.1143C10.1641 21.4815 10.7367 20.512 10.9917 19.6684C11.2244 18.8996 11.6331 17.5347 11.9003 16.6352L12.3861 14.9996L14.0217 17.971L15.6573 20.9422L19.2661 20.8645C22.8477 20.787 22.8766 20.7812 23.0845 20.0877C23.1997 19.7033 23.6885 18.068 24.1704 16.4537C24.6524 14.8395 25.6129 11.7576 26.3048 9.60518C27.0018 7.43656 27.5471 5.22153 27.5279 4.63731C27.4369 1.88838 24.1594 0.141578 21.8185 1.59431ZM24.9856 3.59521C26.1395 4.76645 25.4095 6.94961 23.864 6.94961C22.7245 6.94961 22.2545 6.68713 21.8012 5.79766C21.4376 5.08401 21.4382 4.90064 21.8056 4.17944C22.0336 3.73219 22.3776 3.30198 22.5701 3.22316C23.3618 2.90001 24.4684 3.07025 24.9856 3.59521ZM132.943 4.85312C132.943 6.59852 132.329 7.50868 131.152 7.50868C130.483 7.50868 130.464 7.56458 130.464 9.46542V11.4221H131.565H132.667V14.6457C132.667 18.1192 132.95 19.2421 134.077 20.2584C135.231 21.2978 137.315 21.7489 138.932 21.3092C139.499 21.1549 139.552 20.9755 139.552 19.2163V17.2923H138.48C137.148 17.2923 137.073 17.1135 137.073 13.915V11.4221H138.313H139.552V9.46542V7.50868H138.313H137.073V5.8544C137.073 3.35733 137.037 3.31568 134.84 3.31568H132.943V4.85312ZM16.5864 9.09503L17.7369 11.2424L17.2466 12.6602C16.977 13.4398 16.5542 14.8009 16.3072 15.6851C16.0605 16.5692 15.752 17.2923 15.6217 17.2923C15.4917 17.2923 14.8715 16.3478 14.2439 15.1936L13.1024 13.0948L14.1274 9.87716C14.6911 8.10716 15.216 6.72403 15.2943 6.80342C15.3722 6.88253 15.9539 7.91372 16.5864 9.09503ZM38.8324 7.30546C38.3448 7.49414 37.694 7.86732 37.3866 8.13484C36.8518 8.60054 36.8278 8.59746 36.8278 8.06495C36.8278 7.55899 36.6409 7.50868 34.7623 7.50868H32.6968V14.3572V21.2058H34.7623H36.8278V17.334C36.8278 12.1369 37.2162 11.1427 39.2456 11.1427C40.7944 11.1427 40.9588 11.6748 40.9588 16.6855V21.2058H43.1826H45.4065L45.3171 15.6403L45.2276 10.0748L44.3763 9.00139C43.9081 8.41101 43.1725 7.75271 42.7415 7.53831C41.66 7.00076 39.8933 6.89538 38.8324 7.30546ZM52.8011 7.33314C49.3467 8.49683 47.7094 10.7152 47.7199 14.2174C47.7251 15.9855 47.8485 16.541 48.5067 17.7619C49.919 20.3817 51.8645 21.5164 54.9434 21.5164C56.7753 21.5164 57.1519 21.4185 58.496 20.5925C62.5781 18.0837 63.2497 12.4966 59.8926 8.97567C58.2724 7.27583 55.1304 6.5482 52.8011 7.33314ZM93.5603 7.14025C93.3331 7.22076 92.6826 7.52322 92.1144 7.81253C91.2505 8.25224 91.0817 8.27041 91.0817 7.92351C91.0817 7.59366 90.6587 7.50868 89.0162 7.50868H86.9507V16.873V26.2374H89.1539H91.3571V23.4385V20.6392L92.3546 21.0624C94.6451 22.0338 97.6726 21.278 99.3748 19.3101C100.671 17.8119 101.064 16.6005 101.053 14.1306C101.038 10.528 99.7083 8.38725 96.8485 7.36304C95.701 6.95213 94.3496 6.86044 93.5603 7.14025ZM108.018 7.27639C105.449 8.15524 103.576 9.88051 102.973 11.9272C101.952 15.3871 103.607 19.2834 106.801 20.9377C108.362 21.7456 111.318 21.7414 112.97 20.9291C117.402 18.7517 118.421 12.9962 115.065 9.11543C113.546 7.35941 110.273 6.50515 108.018 7.27639ZM124.749 7.5056C124.257 7.81029 123.855 7.93553 123.855 7.78402C123.855 7.62608 122.914 7.50868 121.651 7.50868H119.448V14.3572V21.2058H121.651H123.855V16.2707C123.855 11.5071 123.872 11.3517 124.358 11.7981C125.156 12.531 126.945 12.4021 127.783 11.5515C128.729 10.5908 128.92 9.64208 128.393 8.515C127.667 6.96219 126.258 6.57197 124.749 7.5056ZM144.928 7.3963C142.619 8.2542 141.203 10.5643 141.767 12.5515C142.266 14.3078 143.583 15.3772 146.049 16.0294C147.836 16.5016 148.469 16.9712 148.217 17.6368C147.79 18.7666 145.465 18.2763 145.133 16.9863C145.016 16.5351 144.829 16.4842 143.858 16.6402C142.21 16.9049 141.491 17.1238 141.485 17.3622C141.458 18.4409 141.593 18.8004 142.347 19.6718C143.495 21.0001 144.738 21.4853 146.988 21.4853C150.528 21.4853 152.496 19.8213 152.496 16.8272C152.496 14.622 151.116 13.1946 148.365 12.5543C146.409 12.0989 146.024 11.8895 146.024 11.2824C146.024 9.98924 148.409 10.0723 148.593 11.3718C148.676 11.9642 148.773 11.9955 149.969 11.8174C152.255 11.4766 152.501 11.3039 152.213 10.247C151.725 8.4658 149.154 6.90936 146.797 6.96918C146.372 6.98009 145.531 7.1724 144.928 7.3963ZM62.7154 7.86788C62.7154 8.19829 63.5631 11.0232 65.8368 18.2707L66.7137 21.066L68.9508 21.1468C71.1785 21.2271 71.1887 21.2243 71.3748 20.4715C71.7436 18.9794 73.8058 13.0817 73.9184 13.1961C73.9818 13.2604 74.6202 15.0574 75.337 17.1894L76.6405 21.066L78.7283 21.1471C81.1799 21.2422 80.7376 21.8739 82.6988 15.4754C83.4057 13.1693 84.2179 10.5383 84.5035 9.62894C84.789 8.71961 85.0229 7.86508 85.0229 7.73035C85.0229 7.59534 84.0648 7.52182 82.8935 7.56682L80.7641 7.64844L79.8143 11.0728C79.2918 12.9559 78.7928 14.497 78.7055 14.497C78.6182 14.497 78.1221 13.2075 77.6033 11.6318C76.1167 7.11649 76.4701 7.50868 73.886 7.50868H71.6499L70.4479 11.2061C69.1271 15.268 69.1763 15.2501 68.3226 11.9812C68.102 11.1356 67.7327 9.78352 67.5019 8.97623L67.0827 7.50868H64.8991C63.3045 7.50868 62.7154 7.60539 62.7154 7.86788ZM56.2003 11.4529C57.1146 11.8758 57.5746 12.8511 57.5746 14.3668C57.5746 16.6648 55.7792 18.0812 53.8793 17.2826C52.2012 16.577 51.5424 14.5281 52.4025 12.6884C53.0613 11.2793 54.6836 10.7515 56.2003 11.4529ZM96.0601 11.9597C97.5787 13.501 96.9794 16.7229 95.0744 17.2568C92.8291 17.8861 91.3571 16.6243 91.3571 14.0701C91.3571 12.296 92.4421 11.1427 94.1111 11.1427C95.0083 11.1427 95.4286 11.319 96.0601 11.9597ZM111.292 11.4585C112.524 12.0282 113.09 14.6533 112.302 16.1468C111.896 16.9169 110.231 17.6697 109.402 17.4584C108.212 17.1557 107.37 16.2111 107.188 14.9784C106.774 12.1668 108.894 10.3493 111.292 11.4585ZM8.3363 17.9786C9.39632 19.0543 9.20574 20.3865 7.89291 21.0756C6.62607 21.7405 4.8814 20.639 4.8814 19.1742C4.8814 18.4247 6.12457 17.2923 6.94691 17.2923C7.33935 17.2923 7.96451 17.6012 8.3363 17.9786Z" fill="#6B7280"/>
</g>
<defs>
<clipPath id="clip0_10632_38591">
<rect width="149.618" height="26.0625" fill="white" transform="translate(2.87842 0.301331)"/>
</clipPath>
</defs>
</svg>
