<svg width="24" height="25" viewBox="0 0 24 25" fill="none" xmlns="http://www.w3.org/2000/svg">
<path d="M7.55016 21.9321C16.6045 21.9321 21.5583 14.4288 21.5583 7.92399C21.5583 7.71305 21.5536 7.49743 21.5442 7.28649C22.5079 6.58959 23.3395 5.72638 24 4.73743C23.1025 5.13673 22.1496 5.39751 21.1739 5.51086C22.2013 4.89504 22.9705 3.9276 23.3391 2.7879C22.3726 3.36069 21.3156 3.76474 20.2134 3.98274C19.4708 3.19369 18.489 2.67125 17.4197 2.49618C16.3504 2.32111 15.2532 2.50318 14.2977 3.01423C13.3423 3.52527 12.5818 4.33683 12.1338 5.32344C11.6859 6.31005 11.5754 7.41674 11.8195 8.47243C9.86249 8.37422 7.94794 7.86583 6.19998 6.98023C4.45203 6.09462 2.90969 4.85157 1.67297 3.33165C1.0444 4.41537 0.852057 5.69777 1.13503 6.91822C1.418 8.13867 2.15506 9.20558 3.19641 9.90211C2.41463 9.87729 1.64998 9.66681 0.965625 9.28805V9.34899C0.964925 10.4863 1.3581 11.5887 2.07831 12.4689C2.79852 13.3491 3.80132 13.9527 4.91625 14.1771C4.19206 14.3753 3.43198 14.4041 2.69484 14.2615C3.00945 15.2396 3.62157 16.095 4.44577 16.7085C5.26997 17.3219 6.26512 17.6627 7.29234 17.6834C5.54842 19.0532 3.39417 19.7963 1.17656 19.7927C0.783287 19.7921 0.390399 19.768 0 19.7206C2.25286 21.1659 4.87353 21.9335 7.55016 21.9321Z" fill="#B8B8B8"/>
</svg>
