<svg width="24" height="25" viewBox="0 0 24 25" fill="none" xmlns="http://www.w3.org/2000/svg">
<g clip-path="url(#clip0_10632_38736)">
<path d="M22.2234 0.182129H1.77187C0.792187 0.182129 0 0.955567 0 1.91182V22.4478C0 23.404 0.792187 24.1821 1.77187 24.1821H22.2234C23.2031 24.1821 24 23.404 24 22.4524V1.91182C24 0.955567 23.2031 0.182129 22.2234 0.182129ZM7.12031 20.6337H3.55781V9.17744H7.12031V20.6337ZM5.33906 7.6165C4.19531 7.6165 3.27188 6.69307 3.27188 5.554C3.27188 4.41494 4.19531 3.4915 5.33906 3.4915C6.47813 3.4915 7.40156 4.41494 7.40156 5.554C7.40156 6.68838 6.47813 7.6165 5.33906 7.6165ZM20.4516 20.6337H16.8937V15.0649C16.8937 13.7384 16.8703 12.0274 15.0422 12.0274C13.1906 12.0274 12.9094 13.4759 12.9094 14.9712V20.6337H9.35625V9.17744H12.7687V10.7431H12.8156C13.2891 9.84307 14.4516 8.8915 16.1813 8.8915C19.7859 8.8915 20.4516 11.2634 20.4516 14.3478V20.6337Z" fill="#B8B8B8"/>
</g>
<defs>
<clipPath id="clip0_10632_38736">
<rect width="24" height="24" fill="white" transform="translate(0 0.182129)"/>
</clipPath>
</defs>
</svg>
