<svg width="24" height="25" viewBox="0 0 24 25" fill="none" xmlns="http://www.w3.org/2000/svg">
<g clip-path="url(#clip0_10632_38737)">
<path d="M24 12.1821C24 5.55471 18.6274 0.182129 12 0.182129C5.37258 0.182129 0 5.55471 0 12.1821C0 18.1716 4.3882 23.1361 10.125 24.0363V15.6509H7.07812V12.1821H10.125V9.53838C10.125 6.53088 11.9166 4.86963 14.6576 4.86963C15.9701 4.86963 17.3438 5.104 17.3438 5.104V8.05713H15.8306C14.34 8.05713 13.875 8.98221 13.875 9.93213V12.1821H17.2031L16.6711 15.6509H13.875V24.0363C19.6118 23.1361 24 18.1716 24 12.1821Z" fill="#B8B8B8"/>
</g>
<defs>
<clipPath id="clip0_10632_38737">
<rect width="24" height="24" fill="white" transform="translate(0 0.182129)"/>
</clipPath>
</defs>
</svg>
