<svg width="135" height="32" viewBox="0 0 135 32" fill="none" xmlns="http://www.w3.org/2000/svg">
<path d="M27.1069 23.4578C26.3834 25.0631 26.0374 25.7791 25.1042 27.1981C23.804 29.1785 21.9691 31.6467 19.699 31.6676C17.6806 31.686 17.1616 30.3535 14.4223 30.3693C11.6831 30.385 11.1116 31.6912 9.09321 31.6729C6.82315 31.6519 5.08522 29.425 3.78505 27.4421C0.146664 21.9024 -0.230807 15.4001 2.01042 11.9457C3.60418 9.488 6.11802 8.05063 8.48244 8.05063C10.8888 8.05063 12.4039 9.37259 14.3935 9.37259C16.3254 9.37259 17.5024 8.05063 20.2836 8.05063C22.3885 8.05063 24.6166 9.19686 26.2052 11.1798C21.0018 14.0309 21.8485 21.4696 27.1069 23.4578Z" fill="#1B1C20"/>
<path d="M18.1714 5.83847C19.1832 4.54011 19.9512 2.70405 19.6708 0.831268C18.0193 0.944055 16.0874 1.99586 14.9576 3.36766C13.9327 4.61356 13.0886 6.45749 13.4163 8.25158C15.2224 8.30666 17.0888 7.22863 18.1714 5.83847Z" fill="#1B1C20"/>
<path d="M36.929 9.02683C38.0587 9.02683 39.0848 8.51958 39.4076 7.59732V8.88849H40.3183V5.30318H37.1941V6.0871H39.4076C39.2807 7.33216 38.4046 8.18526 37.0442 8.18526C35.4764 8.18526 34.4158 7.06701 34.4158 5.26859C34.4158 3.47018 35.4649 2.3404 36.952 2.3404C38.4161 2.3404 39.2692 3.21655 39.3499 4.54231L40.3068 4.48467C40.18 2.62861 38.9925 1.4873 36.9405 1.4873C34.9346 1.4873 33.3898 3.02057 33.3898 5.25707C33.3898 7.51662 34.8769 9.02683 36.929 9.02683Z" fill="#1B1C20"/>
<path d="M45.4424 7.1016C45.2349 7.874 44.7391 8.27749 43.8976 8.27749C42.9984 8.27749 42.2951 7.58579 42.249 6.60588H46.2609V6.22544C46.2609 4.85357 45.4424 3.71227 43.8399 3.71227C42.3874 3.71227 41.2922 4.85357 41.2922 6.44448C41.2922 8.01234 42.3874 9.02683 43.886 9.02683C45.1426 9.02683 45.9842 8.33513 46.2378 7.19382L45.4424 7.1016ZM42.2721 5.98335C42.3874 5.15331 42.9292 4.43856 43.8399 4.43856C44.7968 4.43856 45.2464 5.17637 45.281 5.98335H42.2721Z" fill="#1B1C20"/>
<path d="M47.4282 7.7126C47.4282 8.69251 47.9355 9.02683 48.6502 9.02683C49.2036 9.02683 49.5725 8.87696 49.9414 8.60028V7.95469C49.6532 8.11609 49.3188 8.25443 48.9961 8.25443C48.558 8.25443 48.3735 8.04692 48.3735 7.59732V4.54231H49.7915V3.85061H48.3735V2.45568H47.8317L47.6818 3.15891C47.5665 3.6431 47.4628 3.87367 46.9901 3.96589L46.6673 4.02354V4.54231H47.4282V7.7126Z" fill="#1B1C20"/>
<path d="M52.8506 3.85061V8.88849H53.8074V3.85061H52.8506ZM52.8275 2.70931H53.8189V1.62564H52.8275V2.70931Z" fill="#1B1C20"/>
<path d="M55.2864 7.7126C55.2864 8.69251 55.7936 9.02683 56.5084 9.02683C57.0617 9.02683 57.4306 8.87696 57.7996 8.60028V7.95469C57.5113 8.11609 57.177 8.25443 56.8542 8.25443C56.4162 8.25443 56.2317 8.04692 56.2317 7.59732V4.54231H57.6497V3.85061H56.2317V2.45568H55.6899L55.54 3.15891C55.4247 3.6431 55.321 3.87367 54.8483 3.96589L54.5255 4.02354V4.54231H55.2864V7.7126Z" fill="#1B1C20"/>
<path d="M61.3659 6.37531C61.3659 5.24554 61.9307 4.46161 62.9452 4.46161C63.9713 4.46161 64.5477 5.24554 64.5477 6.37531C64.5477 7.49356 63.9713 8.28901 62.9452 8.28901C61.9307 8.28901 61.3659 7.49356 61.3659 6.37531ZM65.5276 6.37531C65.5276 4.80746 64.4324 3.71227 62.9452 3.71227C61.4696 3.71227 60.3859 4.80746 60.3859 6.37531C60.3859 7.94317 61.4696 9.02683 62.9452 9.02683C64.4324 9.02683 65.5276 7.94317 65.5276 6.37531Z" fill="#1B1C20"/>
<path d="M67.4748 5.99488C67.4748 5.07261 68.0743 4.47314 68.8351 4.47314C69.6306 4.47314 70.0341 5.00344 70.0341 5.84501V8.88849H70.9909V5.76431C70.9909 4.58842 70.4606 3.71227 69.1464 3.71227C68.3971 3.71227 67.7169 4.13882 67.4748 4.74982V3.85061H66.5179V8.88849H67.4748V5.99488Z" fill="#1B1C20"/>
<path d="M39.2976 12.4496L33.3898 27.2192H36.9532L38.1957 24.0309H44.1505L45.4164 27.2192H49.2143L43.2596 12.4496H39.2976ZM41.1262 16.5054H41.22L43.1189 21.3583H39.2273L41.1262 16.5054Z" fill="#1B1C20"/>
<path d="M53.7317 21.8975C53.7317 20.233 54.6928 19.178 56.0995 19.178C57.6937 19.178 58.4673 20.3267 58.4673 22.0147C58.4673 23.7261 57.6937 24.8748 56.0995 24.8748C54.6928 24.8748 53.7317 23.8199 53.7317 22.1319V21.8975ZM53.7317 25.3672C54.2474 26.5862 55.443 27.5005 57.2482 27.5005C60.2959 27.5005 61.8901 25.0858 61.8901 22.0147C61.8901 18.967 60.2959 16.5288 57.2482 16.5288C55.443 16.5288 54.2474 17.4432 53.7317 18.6857V16.8102H50.3557V31.0171H53.7317V25.3672Z" fill="#1B1C20"/>
<path d="M66.873 21.8975C66.873 20.233 67.8342 19.178 69.2408 19.178C70.835 19.178 71.6086 20.3267 71.6086 22.0147C71.6086 23.7261 70.835 24.8748 69.2408 24.8748C67.8342 24.8748 66.873 23.8199 66.873 22.1319V21.8975ZM66.873 25.3672C67.3888 26.5862 68.5844 27.5005 70.3896 27.5005C73.4373 27.5005 75.0314 25.0858 75.0314 22.0147C75.0314 18.967 73.4373 16.5288 70.3896 16.5288C68.5844 16.5288 67.3888 17.4432 66.873 18.6857V16.8102H63.4971V31.0171H66.873V25.3672Z" fill="#1B1C20"/>
<path d="M80.218 21.9678C80.218 25.5547 83.0313 27.5005 86.9698 27.5005C90.3457 27.5005 92.9949 25.9298 92.9949 22.8821C92.9949 20.4674 91.6117 18.967 88.5874 18.4278L85.8211 17.9355C84.7427 17.7245 84.0862 17.4197 84.0862 16.5757C84.0862 15.5677 84.9302 14.9581 86.4306 14.9581C88.142 14.9581 89.3376 15.8021 89.4314 17.5369L92.7135 17.4432C92.6432 14.161 90.4629 12.1683 86.4541 12.1683C82.8672 12.1683 80.5931 13.9735 80.5931 16.8805C80.5931 19.389 82.2576 20.7018 84.602 21.1473L87.3684 21.6396C88.6578 21.8975 89.5252 22.1319 89.5252 23.1166C89.5252 24.1012 88.5406 24.7107 86.9698 24.7107C85.1412 24.7107 83.6174 23.8902 83.4767 21.8506L80.218 21.9678Z" fill="#1B1C20"/>
<path d="M95.1916 24.4294C95.1916 26.7738 96.7155 27.5005 98.4034 27.5005C99.7632 27.5005 100.654 27.1723 101.428 26.5862V24.3591C100.795 24.6404 100.255 24.7811 99.7397 24.7811C98.9426 24.7811 98.5206 24.406 98.5206 23.5151V19.178H101.287V16.8102H98.5206V13.9266H96.4341L96.0825 15.3098C95.8246 16.271 95.5198 16.8102 94.4883 16.9977L93.7381 17.1149V19.178H95.1916V24.4294Z" fill="#1B1C20"/>
<path d="M105.758 22.0147C105.758 20.2799 106.438 19.0842 107.938 19.0842C109.415 19.0842 110.142 20.2799 110.142 22.0147C110.142 23.7495 109.415 24.9452 107.938 24.9452C106.438 24.9452 105.758 23.7495 105.758 22.0147ZM113.565 22.0147C113.565 18.8029 111.267 16.5288 107.938 16.5288C104.609 16.5288 102.335 18.8029 102.335 22.0147C102.335 25.2499 104.609 27.5005 107.938 27.5005C111.267 27.5005 113.565 25.2499 113.565 22.0147Z" fill="#1B1C20"/>
<path d="M122.905 16.9508C122.624 16.7164 122.085 16.5288 121.452 16.5288C120.045 16.5288 118.967 17.5369 118.568 18.7091V16.8102H115.192V27.2192H118.568V22.296C118.568 20.4908 119.506 19.6938 120.913 19.6938C121.64 19.6938 122.155 19.811 122.694 20.1157L122.905 16.9508Z" fill="#1B1C20"/>
<path d="M131.393 23.5385C131.018 24.4997 130.291 24.9452 129.119 24.9452C127.806 24.9452 126.775 24.1481 126.681 22.7649H134.183V21.7334C134.183 18.8967 132.378 16.5288 128.932 16.5288C125.743 16.5288 123.352 18.8967 123.352 22.1788C123.352 25.4844 125.696 27.5005 129.002 27.5005C131.721 27.5005 133.574 26.1642 134.113 23.7964L131.393 23.5385ZM126.728 20.9597C126.915 19.8579 127.548 18.9904 128.908 18.9904C130.198 18.9904 130.854 19.9282 130.924 20.9597H126.728Z" fill="#1B1C20"/>
</svg>
