<svg width="21" height="15" viewBox="0 0 21 15" fill="none" xmlns="http://www.w3.org/2000/svg">
<path fill-rule="evenodd" clip-rule="evenodd" d="M1.04348 1.87963H19.913C20.1898 1.87963 20.4552 1.78062 20.6509 1.60437C20.8466 1.42812 20.9565 1.18907 20.9565 0.939817C20.9565 0.690562 20.8466 0.451511 20.6509 0.275261C20.4552 0.0990107 20.1898 0 19.913 0H1.04348C0.76673 0 0.501317 0.0990107 0.305627 0.275261C0.109937 0.451511 0 0.690562 0 0.939817C0 1.18907 0.109937 1.42812 0.305627 1.60437C0.501317 1.78062 0.76673 1.87963 1.04348 1.87963ZM19.913 6.26545H5.04348C4.76673 6.26545 4.50131 6.36446 4.30562 6.54071C4.10993 6.71696 4 6.95601 4 7.20527C4 7.45452 4.10993 7.69357 4.30562 7.86982C4.50131 8.04607 4.76673 8.14508 5.04348 8.14508H19.913C20.1898 8.14508 20.4552 8.04607 20.6509 7.86982C20.8466 7.69357 20.9565 7.45452 20.9565 7.20527C20.9565 6.95601 20.8466 6.71696 20.6509 6.54071C20.4552 6.36446 20.1898 6.26545 19.913 6.26545ZM19.913 12.5309H1.04348C0.76673 12.5309 0.501317 12.6299 0.305627 12.8062C0.109937 12.9824 0 13.2215 0 13.4707C0 13.72 0.109937 13.959 0.305627 14.1353C0.501317 14.3115 0.76673 14.4105 1.04348 14.4105H19.913C20.1898 14.4105 20.4552 14.3115 20.6509 14.1353C20.8466 13.959 20.9565 13.72 20.9565 13.4707C20.9565 13.2215 20.8466 12.9824 20.6509 12.8062C20.4552 12.6299 20.1898 12.5309 19.913 12.5309Z" fill="white"/>
</svg>
